v -30.29800034 12.54800034 16.9659996
vn -0.7748756409 0.3196064532 0.5453617573
v -31.54599953 6.274002075 16.97200012
vn -0.9807879329 0.1950613856 -0.002475901274
v -32.77799988 0.07200109959 16.97599983
vn 0.003465768648 6.034446415e-06 0.9999939799
v -32.79399872 -0.001998900902 16.97599983
vn -0.3129944503 0.01648178324 -0.9496119022
v -30.29800034 -12.55000019 16.9659996
vn -0.7477630377 -0.2809478343 0.6015968323
v -23.19000053 -23.18799973 16.94199944
vn -0.5309371948 -0.4968138635 0.6864995956
v -12.55000019 -30.29599953 16.90600014
vn -0.2446680069 -0.5438855886 0.8026992083
v -0.002000000095 -32.79199982 16.86199951
vn 0.002398014069 -0.7407853603 -0.6717375517
v 6.271999836 -31.54400063 16.84000015
vn 0.003493459197 6.485214544e-05 0.9999939203
v 12.54599953 -30.29599953 16.81800079
vn 0.2012643367 -0.4852656722 0.8508877158
v 17.86400032 -26.74200058 16.79999924
vn 0.003428722965 -6.665167166e-05 0.9999940991
v 23.18400002 -23.18799973 16.78199959
vn 0.2857153416 -0.2720525563 0.9188874364
v 26.73800278 -17.87000084 16.77000046
vn 0.003366268007 6.824486263e-06 0.9999943376
v -1.243999958 -6.237998962 16.86599922
vn 0.003457986983 7.667934369e-06 0.9999940395
v 30.29199982 -12.55000019 16.75799942
vn 0.5751683712 -0.240282923 0.7819498181
v 31.54000092 -6.275999069 16.75200081
vn 0.004006472416 6.127423767e-17 0.9999919534
v -0.002000000095 -0.001998900902 16.86199951
vn -0.003479731036 1.189659815e-05 -0.9999939203
v -32.79000092 -0.001998900902 15.89999962
vn -0.9993527532 4.623561836e-05 -0.03597297519
v -30.29400063 12.54800034 15.8920002
vn -0.8945578337 0.441883266 -0.06712256372
v -23.19000053 23.18600082 16.94199944
vn -0.6145472527 0.5758274198 0.5392164588
v -23.18600082 23.18600082 15.86800003
vn -0.6562229991 0.7493713498 -0.08839627355
v -12.55000019 30.29400063 16.90600014
vn -0.3232157826 0.7745633125 0.5436756611
v -12.54800034 30.29400063 15.82999992
vn -0.3203145564 0.9450066686 -0.06603767723
v -0.002000000095 32.79000092 16.86199951
vn 0.0125774648 0.8316566348 0.5551477671
v -9.442169269e-12 32.79000092 15.78800011
vn 0.06584196538 0.9956867099 -0.06536658108
v 12.54599953 30.29400063 16.81800079
vn 0.3190624714 0.7759490013 0.5441528559
v 12.54800034 30.29400063 15.74400043
vn 0.4418347776 0.8947868943 -0.06433076411
v 23.18400002 23.18600082 16.78199959
vn 0.5743962526 0.6090019941 0.5469785929
v 23.18799973 23.18600082 15.70800018
vn 0.7507123351 0.6576279402 -0.06290064007
v 30.29199982 12.54800034 16.75799942
vn 0.7735945582 0.324230969 0.5444499254
v 30.29599953 12.54800034 15.68200016
vn 0.9453949928 0.3200954795 -0.06137759611
v 32.7879982 -0.001998900902 16.74799919
vn 0.5664499402 -0.05068133771 -0.8225362301
v 32.79199982 -0.001998900902 15.67399979
vn 0.9954863787 -1.181785228e-05 -0.0949042961
v 32.77399826 0.07200109959 16.74799919
vn 0.8091543913 0.1604777277 0.5652575493
v 22.40200043 4.462000847 30.34799957
vn 0.8065363169 0.103082642 0.5821281672
v 16.66799927 6.926002026 37.85599899
vn 0.6324620843 0.4885074496 0.6011257768
v 16.98399925 6.790000916 37.44200134
vn 0.7947361469 4.718997762e-12 0.6069550514
v 20.36800003 16.15800095 25.88999939
vn 0.6239382625 0.5134781599 0.5891020298
v 12.67399979 19.02000046 30.38199997
vn 0.4596865475 0.685115695 0.5650705695
v 6.872000217 16.72200012 37.88999939
vn 0.04138619453 0.7931156754 0.6076632738
v 7.191999912 16.84799957 37.47600174
vn 0.5396124125 0.5922942162 0.5983359814
v 5.768000126 19.30200005 34.51399994
vn 0.09566134214 0.8057768941 0.5844420791
v -6.846000195 17.0359993 37.52399826
vn -0.1555879414 0.8097670078 0.5657470822
v -6.710000992 16.72200012 37.93799973
vn 0.002082397928 0.7949354649 0.6066904664
v -4.5 22.43600082 30.44199944
vn -0.07329732925 0.8046557307 0.5892000198
v -6.981999874 16.72200012 37.93799973
vn -0.5296880007 0.6006270647 0.5988970995
v -16.18400002 20.3920002 26.01600075
vn -0.5140054822 0.6237924099 0.588796556
v -19.05800056 12.70800018 30.49200058
vn -0.6469899416 0.4949939847 0.5799870491
v -16.77799988 6.926002026 37.97200012
vn -0.795987308 0.05607784912 0.6027101278
v -16.90399933 7.244000912 37.56000137
vn -0.6451209784 0.4967233837 0.5805900693
v -19.35000038 5.814002037 34.59999847
vn -0.8047879338 0.07667330652 0.5885894895
v -6.276000023 -31.54400063 16.88400078
vn -0.04542877153 -0.2112998813 -0.9763649702
v -17.87000084 -26.74200058 16.92399979
vn -0.5259171128 -0.7855971456 -0.3259575963
v -31.54599953 -6.275999069 16.97200012
vn -0.9336885214 -0.1859695017 0.3060082495
v 16.66799927 6.654001236 37.85599899
vn 0.7947449088 5.060898275e-06 0.6069436073
v 0.5479999781 -0.2719989121 58.9640007
vn 0.7878853083 -0.03089204244 0.61504668
v 16.66799927 -6.92799902 37.85599899
vn 0.7957216501 -0.0551899448 0.6031427383
v 16.66799927 -0.001998900902 37.85599899
vn 0.7947430015 1.1861659e-05 0.6069461107
v 19.25600052 -5.815999031 34.4679985
vn 0.8065390587 -0.1030758247 0.5821255445
v 30.29599953 -12.55000019 15.68200016
vn 0.9453459382 -0.3202700019 -0.06122288108
v 23.18799973 -23.18799973 15.70800018
vn 0.75077492 -0.6575699449 -0.06275970489
v 12.54800034 -30.29599953 15.74400043
vn 0.4417398274 -0.8948454261 -0.06416861713
v -9.442169269e-12 -32.79199982 15.78800011
vn 0.06586188078 -0.9956693649 -0.06561036408
v -12.54800034 -30.29599953 15.82999992
vn -0.3204157948 -0.9449790716 -0.06594158709
v -23.18600082 -23.18799973 15.86800003
vn -0.6580445766 -0.7515752316 -0.04595706239
v -30.29400063 -12.55000019 15.8920002
vn -0.893106699 -0.441157341 -0.08798048645
v -32.69599915 0.1280010939 15.89999962
vn -0.789996326 0.1535571814 -0.59357059
v -30.22999954 -12.52200031 15.8920002
vn -0.7996129394 -0.1619267017 -0.5782723427
v -30.15800095 -12.63199997 15.8920002
vn -0.6791166663 -0.4524745643 -0.5779855847
v 30.23200035 12.52000046 15.68200016
vn 0.7770554423 0.2400487214 -0.5818603635
v 30.15800095 12.63000011 15.68399906
vn 0.6722548604 0.4506390393 -0.5873652101
v -23.20999908 -23.03000069 15.86800003
vn -0.6680135727 -0.4488120675 -0.5935702324
v -32.69599915 -0.1299989074 15.89999962
vn -0.7360296845 -0.03475034609 -0.6760567427
v 12.52200031 30.22800064 15.74400043
vn 0.3786283135 0.7196539044 -0.5820127726
v 12.39400005 30.25399971 15.74400043
vn 0.1560910791 0.7939974666 -0.5875402689
v 23.03000069 -23.20999908 15.70800018
vn 0.4519980848 -0.673720777 -0.5846349597
v 23.20999908 -23.03000069 15.70800018
vn 0.5922567844 -0.4833483398 -0.644675374
v -23.02799988 -23.20999908 15.86600018
vn -0.483530581 -0.5920481682 -0.6447303295
v -12.52200031 -30.22999954 15.82999992
vn -0.4501282573 -0.6763291955 -0.5830637813
v -12.39400005 -30.25600052 15.82999992
vn -0.1611540765 -0.8001537323 -0.5777398944
v -0.1280000061 -32.69599915 15.78800011
vn -0.1571154445 -0.7957649827 -0.5848699212
v 0.1280000061 -32.69599915 15.78600025
vn 0.07566779107 -0.7580465078 -0.647796154
v 12.52200031 -30.22999954 15.74400043
vn 0.2531316578 -0.7698794007 -0.5858413577
v 12.63199997 -30.15800095 15.74400043
vn 0.4505961537 -0.6774635911 -0.5813829899
v 30.23200035 -12.52200031 15.68200016
vn 0.7239635587 -0.3645253479 -0.5856603384
v 30.25600052 -12.39400005 15.68200016
vn 0.7977852821 -0.1590053886 -0.5815977454
v 32.69599915 -0.1299989074 15.67399979
vn 0.7959460616 -0.1549070477 -0.5852125287
v 32.69599915 0.1280010939 15.67399979
vn 0.7543632388 0.070983693 -0.6526082158
v 23.20999908 23.02799988 15.70800018
vn 0.5659759641 0.4916453362 -0.6617825031
v 23.03000069 23.20800018 15.70800018
vn 0.4787757993 0.6006743908 -0.6402842999
v 0.1280000061 32.69400024 15.78600025
vn 0.05216785893 0.7481480837 -0.6614778638
v -0.1280000061 32.69400024 15.78800011
vn -0.1584741026 0.7958381176 -0.5844036937
v -12.52200031 30.22800064 15.82999992
vn -0.2411215454 0.7763376832 -0.5823746324
v -12.63000011 30.15600014 15.82999992
vn -0.4508426189 0.6717540622 -0.5877817869
v -23.02799988 23.20800018 15.86600018
vn -0.4917393029 0.5663294196 -0.6614102125
v -23.20999908 23.02799988 15.86800003
vn -0.6756379604 0.453858465 -0.5809697509
v -30.22999954 12.52000046 15.8920002
vn -0.7244955897 0.3627237082 -0.5861208439
v -30.25600052 12.3920002 15.8920002
vn -0.7975558043 0.15833731 -0.5820944905
v 7.06400013 16.53000069 37.88999939
vn 0.5630602837 0.5609539747 0.6068720818
v -16.58600044 7.118000984 37.97200012
vn -0.5611705184 0.5632224083 0.606521368
v -22.47400093 -4.463998795 30.50399971
vn -0.8054487109 -0.0841781795 0.5866569877
v -17.09199905 -6.791998863 37.56000137
vn -0.7951189876 -2.413410584e-06 0.6064534783
v -16.77799988 -0.001998900902 37.97200012
vn -0.7951200604 -1.388399505e-05 0.6064521074
v -0.7640001178 0.2700011134 58.9679985
vn -0.7866966724 0.02999420837 0.6166106462
v -16.77799988 -6.92799902 37.97200012
vn -0.6839128733 -0.4315668643 0.5882288814
v -26.74399948 -17.87000084 16.95400047
vn -0.722772181 -0.4840480089 0.4932523668
v -20.41799927 -16.15999985 26.03199959
vn -0.5610839128 -0.5632838011 0.6065444946
v -12.74600029 -19.02199936 30.46999931
vn -0.4926703274 -0.6486955285 0.5800603628
v -7.300000191 -16.85000038 37.52600098
vn -0.5402135253 -0.5911302567 0.598944366
v -6.981999874 -16.72400284 37.93799973
vn -0.1638507694 -0.799624145 0.5777145624
v -5.861999989 -19.30400085 34.55400085
vn 0.002055086894 -0.7949181199 0.6067132354
v -0.3799999952 -0.6559988856 58.9679985
vn -0.008610046469 -0.7927997708 0.6094213724
v 4.426000118 -22.43799973 30.41200066
vn 0.07737772912 -0.8042268753 0.5892637968
v 6.737999916 -17.03800011 37.47800064
vn 0.07318552583 -0.803859055 0.5903003812
v 6.872000217 -16.72400284 37.88999939
vn 0.5322800279 -0.5979040861 0.5993235111
v 16.13400078 -20.3939991 25.90399933
vn 0.5156779289 -0.6221783161 0.5890419483
v 18.98600006 -12.71000004 30.36000061
vn 0.6865204573 -0.4574378133 0.5651904941
v 16.79599953 -7.245998859 37.44400024
vn 0.5805764794 -0.5479325652 0.6022465229
v 0.5479999781 0.2700011134 58.9640007
vn 0.5798532367 0.5349071026 0.6145279408
v 0.1640000045 -0.6559988856 58.9659996
vn 0.5369576216 -0.5779275894 0.61455369
v -0.7640001178 -0.2719989121 58.9679985
vn -0.5690104961 -0.5521791577 0.6093645692
v 0.1640000045 0.6540011168 58.9659996
vn 0.02311456017 0.7905780673 0.6119248867
v -0.3799999952 0.6540011168 58.9679985
vn -0.5353503823 0.5812956691 0.6127766967
v -28.56399918 5.682002068 11.65400028
vn -0.8026958108 0.1572437286 -0.5752859116
v -20.01599884 -3.599998951 2.869999409
vn -0.6833033562 -0.04864259064 -0.7285125256
v -27.74200058 6.790000916 10.80800056
vn -0.7166950703 -4.984396583e-05 -0.697386682
v -21.52599907 -5.631999016 4.422000885
vn -0.6447654963 -0.09951268882 -0.7578751445
v -28.15200043 -6.239998817 11.22999954
vn -0.7680486441 -0.08613241464 -0.6345726848
v -25.06599998 -10.3920002 8.057999611
vn -0.6123430729 -0.3446546197 -0.7115118504
v -25.06599998 10.39000034 8.057999611
vn -0.6358895898 0.3232976794 -0.7008017302
v -16.1760006 24.22400093 11.61199951
vn -0.4929713607 0.5689703822 -0.6582187414
v -14.81000042 24.4260006 10.76399994
vn -0.5020019412 0.5322279334 -0.6817092299
v -19.19400024 11.26000023 4.414000988
vn -0.5271992087 0.3847343326 -0.7576546073
v -16.68799973 11.63000011 2.857998133
vn -0.5273675323 0.384706825 -0.7575514317
v -10.36999989 25.08399963 8.008000374
vn -0.1622593254 0.6973538995 -0.6981185079
v -6.228000164 28.16200066 11.15400028
vn -0.005433810409 0.7184298635 -0.6955781579
v 5.696000099 28.5739994 11.53600025
vn 0.05322512239 0.7507991791 -0.6583825946
v 6.803999901 27.75200081 10.68999958
vn 0.02073625103 0.7312345505 -0.6818108559
v -3.565999985 20.04800034 2.812000275
vn -0.002304673893 0.7164401412 -0.6976447701
v -5.602000237 21.55400085 4.366001129
vn -0.2247859091 0.5357819796 -0.8138850927
v 10.40999985 25.08399963 7.936000347
vn 0.3160459399 0.64868325 -0.692332983
v 11.28999996 19.22200012 4.308000088
vn 0.4284954071 0.5210742354 -0.738155365
v 24.23600006 16.18600082 11.47200012
vn 0.5690593719 0.4928032756 -0.6582676768
v 24.44000053 14.82199955 10.62799931
vn 0.5419332981 0.499535352 -0.6758496165
v 11.66399956 16.71999931 2.759997606
vn 0.3836735487 0.5268781185 -0.7584155202
v 25.1060009 10.39000034 7.88600111
vn 0.6664281487 0.2116462141 -0.714898169
v 28.1760006 6.23800087 11.03600025
vn 0.7602226734 0.07230043411 -0.6456269622
v 27.76799965 -6.791998863 10.61800003
vn 0.7293575406 -0.02041884512 -0.6838279366
v 20.08200073 3.598001003 2.730000257
vn 0.7161518335 -5.380748917e-06 -0.6979445219
v 21.58399963 5.630002022 4.271997929
vn 0.6245048046 0.1234064177 -0.771209836
v 28.58600044 -5.683999062 11.45799923
vn 0.8041658998 -0.1602681428 -0.572390914
v 25.1060009 -10.3920002 7.88600111
vn 0.6351473927 -0.3201837242 -0.7029012442
v 16.19799995 -24.22599983 11.5
vn 0.4966250062 -0.5460787416 -0.6746566892
v 14.83600044 -24.4279995 10.66200066
vn 0.4901371002 -0.5715900064 -0.6580657363
v 16.75399971 -11.63199997 2.742001534
vn 0.5193800926 -0.4263373911 -0.7405948639
v 19.25200081 -11.26200008 4.279998302
vn 0.5245778561 -0.3865687549 -0.7585398555
v 10.40999985 -25.08600044 7.936000347
vn 0.2644779682 -0.6445868611 -0.7173278332
v 6.251999855 -28.16399956 11.11200142
vn 0.0771247223 -0.7644470334 -0.6400566697
v -5.673999786 -28.57600021 11.57599926
vn -0.03528178856 -0.7372151613 -0.6747362018
v -6.777999878 -27.75399971 10.73600006
vn -0.05768568069 -0.7505838275 -0.6582524776
v 3.631999731 -20.04999924 2.787997484
vn -0.002413734328 -0.7164025903 -0.6976829171
v 5.659999847 -21.55599976 4.327999592
vn 0.1204086319 -0.6257221103 -0.7706968188
v -10.36999989 -25.08600044 8.008000374
vn -0.3211011291 -0.6352857351 -0.7023575306
v -24.2140007 -16.18799973 11.63999939
vn -0.545778513 -0.4969469905 -0.6746625304
v -24.41399956 -14.82400036 10.79800034
vn -0.5709837675 -0.4906948209 -0.6581763625
v -11.59799957 -16.72200012 2.840000153
vn -0.4270596504 -0.5198620558 -0.7398402095
v -11.23200035 -19.22400093 4.386003017
vn -0.3875630796 -0.5250692368 -0.7576919794
v -12.25 -12.28999996 0.1020007059
vn -0.08021930605 -0.05789263174 -0.9950945973
v -17.34000015 -0.001998900902 0.1199987978
vn -0.4450532794 0.0619379878 -0.8933595419
v -12.25 12.28800011 0.1020007059
vn -0.2019449472 0.2465155125 -0.9478651285
v 0.03999999911 17.37800026 0.06000188738
vn 0.0133946687 0.23990345 -0.9707043171
v 12.32800007 12.28800011 0.01599959284
vn 0.1579117775 0.129990235 -0.9788597226
v 17.42000008 -0.001998900902 -8.85243935e-07
vn 0.1970532686 -0.01788477041 -0.9802296162
v 12.32800007 -12.28999996 0.01599959284
vn 0.158315599 -0.2143481374 -0.9638417959
v 0.03999999911 -17.37999916 0.06000188738
vn -0.04337435961 -0.4516947269 -0.8911175728
# mm_gid 0
g mmGroup0
f 1//1 2//2 3//3 
f 3//3 4//4 5//5 
f 3//3 5//5 6//6 
f 3//3 6//6 7//7 
f 3//3 7//7 8//8 
f 8//8 9//9 3//3 
f 10//10 11//11 3//3 
f 12//12 13//13 14//14 
f 15//15 16//16 17//17 
f 1//1 3//3 17//17 
f 17//17 14//14 15//15 
f 2//2 1//1 18//18 
f 18//18 1//1 19//19 
f 1//1 20//20 19//19 
f 19//19 20//20 21//21 
f 21//21 20//20 22//22 
f 23//23 21//21 22//22 
f 23//23 22//22 24//24 
f 25//25 23//23 24//24 
f 25//25 24//24 26//26 
f 27//27 25//25 26//26 
f 27//27 26//26 28//28 
f 29//29 27//27 28//28 
f 29//29 28//28 30//30 
f 31//31 29//29 30//30 
f 31//31 30//30 32//32 
f 33//33 31//31 32//32 
f 34//34 35//35 32//32 
f 34//34 30//30 35//35 
f 30//30 34//34 32//32 
f 35//35 36//36 37//37 
f 30//30 36//36 35//35 
f 36//36 30//30 38//38 
f 38//38 30//30 28//28 
f 26//26 39//39 28//28 
f 40//40 41//41 26//26 
f 26//26 41//41 39//39 
f 26//26 24//24 42//42 
f 40//40 26//26 42//42 
f 43//43 44//44 45//45 
f 45//45 44//44 40//40 
f 45//45 40//40 42//42 
f 45//45 42//42 24//24 
f 24//24 22//22 45//45 
f 43//43 22//22 46//46 
f 45//45 22//22 43//43 
f 20//20 47//47 22//22 
f 22//22 47//47 46//46 
f 1//1 48//48 20//20 
f 1//1 49//49 50//50 
f 1//1 50//50 48//48 
f 4//4 51//51 1//1 
f 1//1 51//51 49//49 
f 52//52 4//4 17//17 
f 17//17 4//4 1//1 
f 7//7 4//4 52//52 
f 53//53 6//6 4//4 
f 54//54 4//4 6//6 
f 8//8 52//52 17//17 
f 32//32 8//8 17//17 
f 16//16 15//15 8//8 
f 13//13 12//12 8//8 
f 9//9 8//8 12//12 
f 55//55 35//35 37//37 
f 56//56 57//57 58//58 
f 56//56 58//58 55//55 
f 58//58 57//57 59//59 
f 58//58 59//59 32//32 
f 58//58 32//32 35//35 
f 58//58 35//35 55//55 
f 32//32 15//15 60//60 
f 33//33 32//32 60//60 
f 15//15 12//12 61//61 
f 60//60 15//15 61//61 
f 10//10 62//62 12//12 
f 12//12 62//62 61//61 
f 8//8 63//63 10//10 
f 10//10 63//63 62//62 
f 7//7 64//64 8//8 
f 8//8 64//64 63//63 
f 6//6 65//65 7//7 
f 7//7 65//65 64//64 
f 5//5 66//66 6//6 
f 6//6 66//66 65//65 
f 4//4 18//18 5//5 
f 5//5 18//18 66//66 
f 67//67 18//18 19//19 
f 68//68 69//69 66//66 
f 70//70 71//71 31//31 
f 69//69 72//72 66//66 
f 73//73 18//18 67//67 
f 66//66 18//18 73//73 
f 74//74 75//75 27//27 
f 76//76 77//77 61//61 
f 65//65 66//66 72//72 
f 65//65 78//78 64//64 
f 65//65 72//72 78//78 
f 64//64 79//79 63//63 
f 78//78 79//79 64//64 
f 79//79 80//80 63//63 
f 80//80 81//81 63//63 
f 63//63 82//82 62//62 
f 63//63 81//81 82//82 
f 62//62 83//83 61//61 
f 83//83 84//84 61//61 
f 82//82 83//83 62//62 
f 84//84 76//76 61//61 
f 61//61 77//77 60//60 
f 60//60 85//85 33//33 
f 85//85 86//86 33//33 
f 86//86 87//87 33//33 
f 33//33 88//88 31//31 
f 88//88 70//70 31//31 
f 31//31 71//71 29//29 
f 71//71 89//89 29//29 
f 29//29 90//90 27//27 
f 90//90 74//74 27//27 
f 77//77 85//85 60//60 
f 27//27 75//75 25//25 
f 75//75 91//91 25//25 
f 87//87 88//88 33//33 
f 25//25 92//92 23//23 
f 92//92 93//93 23//23 
f 23//23 94//94 21//21 
f 94//94 95//95 21//21 
f 95//95 96//96 21//21 
f 89//89 90//90 29//29 
f 21//21 97//97 19//19 
f 97//97 98//98 19//19 
f 98//98 67//67 19//19 
f 91//91 92//92 25//25 
f 93//93 94//94 23//23 
f 96//96 97//97 21//21 
f 73//73 68//68 66//66 
f 99//99 36//36 41//41 
f 41//41 36//36 38//38 
f 41//41 38//38 28//28 
f 41//41 28//28 39//39 
f 36//36 55//55 37//37 
f 40//40 99//99 41//41 
f 43//43 46//46 44//44 
f 20//20 48//48 47//47 
f 47//47 48//48 50//50 
f 47//47 50//50 100//100 
f 47//47 100//100 46//46 
f 50//50 49//49 100//100 
f 51//51 4//4 101//101 
f 51//51 101//101 102//102 
f 103//103 102//102 104//104 
f 51//51 102//102 103//103 
f 49//49 51//51 103//103 
f 103//103 104//104 49//49 
f 4//4 54//54 101//101 
f 101//101 5//5 105//105 
f 101//101 105//105 102//102 
f 5//5 106//106 105//105 
f 105//105 6//6 107//107 
f 6//6 53//53 108//108 
f 108//108 7//7 109//109 
f 109//109 7//7 110//110 
f 7//7 52//52 110//110 
f 110//110 52//52 8//8 
f 110//110 8//8 111//111 
f 110//110 111//111 112//112 
f 112//112 111//111 8//8 
f 112//112 8//8 113//113 
f 112//112 113//113 114//114 
f 113//113 8//8 10//10 
f 113//113 10//10 114//114 
f 114//114 10//10 115//115 
f 115//115 10//10 116//116 
f 116//116 10//10 12//12 
f 117//117 12//12 15//15 
f 57//57 118//118 15//15 
f 15//15 118//118 117//117 
f 32//32 59//59 15//15 
f 15//15 59//59 57//57 
f 56//56 55//55 119//119 
f 119//119 55//55 36//36 
f 120//120 118//118 56//56 
f 56//56 118//118 57//57 
f 121//121 112//112 104//104 
f 104//104 112//112 120//120 
f 104//104 120//120 56//56 
f 104//104 56//56 119//119 
f 104//104 119//119 122//122 
f 104//104 122//122 123//123 
f 73//73 67//67 124//124 
f 125//125 73//73 126//126 
f 126//126 73//73 124//124 
f 127//127 73//73 125//125 
f 128//128 73//73 127//127 
f 129//129 128//128 127//127 
f 124//124 67//67 98//98 
f 98//98 97//97 124//124 
f 124//124 97//97 130//130 
f 124//124 130//130 126//126 
f 130//130 97//97 96//96 
f 96//96 95//95 130//130 
f 95//95 131//131 130//130 
f 131//131 132//132 130//130 
f 132//132 133//133 130//130 
f 132//132 134//134 133//133 
f 131//131 95//95 94//94 
f 132//132 131//131 94//94 
f 135//135 132//132 93//93 
f 93//93 132//132 94//94 
f 135//135 93//93 92//92 
f 136//136 135//135 92//92 
f 136//136 91//91 135//135 
f 92//92 91//91 136//136 
f 91//91 137//137 135//135 
f 137//137 138//138 135//135 
f 138//138 139//139 135//135 
f 139//139 140//140 135//135 
f 137//137 91//91 75//75 
f 138//138 137//137 75//75 
f 141//141 138//138 74//74 
f 74//74 138//138 75//75 
f 90//90 141//141 74//74 
f 90//90 142//142 141//141 
f 89//89 142//142 90//90 
f 143//143 142//142 89//89 
f 144//144 142//142 143//143 
f 145//145 142//142 144//144 
f 143//143 89//89 71//71 
f 144//144 143//143 71//71 
f 146//146 144//144 70//70 
f 70//70 144//144 71//71 
f 147//147 146//146 70//70 
f 88//88 147//147 70//70 
f 148//148 149//149 150//150 
f 146//146 148//148 150//150 
f 88//88 148//148 147//147 
f 87//87 148//148 88//88 
f 151//151 148//148 87//87 
f 146//146 147//147 148//148 
f 86//86 151//151 87//87 
f 151//151 85//85 148//148 
f 148//148 85//85 152//152 
f 86//86 85//85 151//151 
f 85//85 77//77 152//152 
f 153//153 154//154 155//155 
f 152//152 153//153 156//156 
f 156//156 153//153 155//155 
f 76//76 153//153 77//77 
f 152//152 77//77 153//153 
f 76//76 84//84 153//153 
f 153//153 83//83 154//154 
f 154//154 83//83 157//157 
f 84//84 83//83 153//153 
f 82//82 158//158 83//83 
f 83//83 158//158 157//157 
f 159//159 160//160 161//161 
f 157//157 159//159 162//162 
f 162//162 159//159 161//161 
f 82//82 159//159 158//158 
f 81//81 159//159 82//82 
f 157//157 158//158 159//159 
f 81//81 80//80 159//159 
f 79//79 163//163 80//80 
f 80//80 163//163 160//160 
f 80//80 160//160 159//159 
f 79//79 78//78 163//163 
f 164//164 165//165 166//166 
f 163//163 164//164 167//167 
f 167//167 164//164 166//166 
f 72//72 164//164 78//78 
f 163//163 78//78 164//164 
f 72//72 69//69 164//164 
f 69//69 68//68 129//129 
f 165//165 69//69 129//129 
f 164//164 69//69 165//165 
f 73//73 128//128 68//68 
f 68//68 128//128 129//129 
f 49//49 104//104 100//100 
f 100//100 104//104 123//123 
f 102//102 105//105 104//104 
f 104//104 105//105 121//121 
f 6//6 108//108 107//107 
f 107//107 108//108 109//109 
f 107//107 109//109 121//121 
f 107//107 121//121 105//105 
f 109//109 110//110 121//121 
f 121//121 110//110 112//112 
f 112//112 114//114 120//120 
f 120//120 114//114 115//115 
f 120//120 115//115 118//118 
f 118//118 115//115 116//116 
f 118//118 116//116 12//12 
f 118//118 12//12 117//117 
f 122//122 119//119 40//40 
f 40//40 119//119 99//99 
f 99//99 119//119 36//36 
f 46//46 100//100 123//123 
f 40//40 44//44 122//122 
f 46//46 123//123 44//44 
f 44//44 123//123 122//122 
f 166//166 129//129 168//168 
f 165//165 129//129 166//166 
f 168//168 129//129 127//127 
f 168//168 127//127 125//125 
f 169//169 168//168 125//125 
f 125//125 126//126 130//130 
f 130//130 169//169 125//125 
f 169//169 130//130 133//133 
f 169//169 133//133 134//134 
f 170//170 169//169 134//134 
f 170//170 134//134 132//132 
f 135//135 170//170 132//132 
f 140//140 170//170 135//135 
f 139//139 171//171 140//140 
f 140//140 171//171 170//170 
f 171//171 139//139 138//138 
f 141//141 171//171 138//138 
f 142//142 171//171 141//141 
f 145//145 171//171 142//142 
f 172//172 171//171 145//145 
f 172//172 145//145 144//144 
f 146//146 172//172 144//144 
f 152//152 173//173 149//149 
f 148//148 152//152 149//149 
f 150//150 172//172 146//146 
f 149//149 173//173 150//150 
f 150//150 173//173 172//172 
f 152//152 156//156 173//173 
f 155//155 174//174 173//173 
f 156//156 155//155 173//173 
f 155//155 157//157 174//174 
f 154//154 157//157 155//155 
f 157//157 162//162 174//174 
f 162//162 175//175 174//174 
f 161//161 175//175 162//162 
f 161//161 163//163 175//175 
f 160//160 163//163 161//161 
f 163//163 167//167 175//175 
f 166//166 168//168 175//175 
f 167//167 166//166 175//175 
f 168//168 169//169 170//170 
f 171//171 168//168 170//170 
f 172//172 168//168 171//171 
f 173//173 168//168 172//172 
f 174//174 168//168 173//173 
f 175//175 168//168 174//174 
f 12//12 14//14 3//3 
f 17//17 3//3 14//14 
f 2//2 4//4 3//3 
f 4//4 2//2 18//18 
f 7//7 53//53 4//4 
f 53//53 7//7 108//108 
f 106//106 5//5 54//54 
f 54//54 5//5 101//101 
f 6//6 106//106 54//54 
f 106//106 6//6 105//105 
f 16//16 32//32 17//17 
f 32//32 16//16 8//8 
f 13//13 15//15 14//14 
f 15//15 13//13 8//8 
f 9//9 10//10 3//3 
f 11//11 10//10 9//9 
f 11//11 12//12 3//3 
f 12//12 11//11 9//9 
